<?xml version="1.0" encoding="iso-8859-1"?>
<!-- Uploaded to: SVG Repo, www.svgrepo.com, Generator: SVG Repo Mixer Tools -->
<svg fill="#000000" height="800px" width="800px" version="1.1" id="Layer_1" xmlns="http://www.w3.org/2000/svg" xmlns:xlink="http://www.w3.org/1999/xlink" 
	 viewBox="0 0 512.004 512.004" xml:space="preserve">
<g>
	<g>
		<path d="M373.381,278.06c-0.15-0.738-0.38-1.464-0.668-2.155c-0.288-0.692-0.634-1.36-1.049-1.994
			c-0.426-0.622-0.91-1.222-1.441-1.752c-0.53-0.53-1.118-1.014-1.752-1.429c-0.622-0.415-1.291-0.772-1.982-1.06
			c-0.703-0.288-1.429-0.507-2.155-0.657c-1.487-0.3-3.019-0.3-4.506,0c-0.738,0.15-1.464,0.369-2.155,0.657
			c-0.703,0.288-1.371,0.645-1.994,1.06c-0.634,0.415-1.222,0.899-1.752,1.429c-2.144,2.155-3.377,5.117-3.377,8.159
			c0,0.749,0.081,1.498,0.23,2.247c0.15,0.738,0.369,1.464,0.657,2.155c0.288,0.691,0.645,1.36,1.06,1.994
			c0.415,0.622,0.899,1.222,1.429,1.752c0.53,0.53,1.118,1.014,1.752,1.429c0.622,0.415,1.291,0.772,1.994,1.06
			c0.691,0.288,1.418,0.507,2.155,0.657s1.498,0.23,2.247,0.23c0.749,0,1.51-0.081,2.259-0.23c0.726-0.15,1.452-0.369,2.155-0.657
			c0.692-0.288,1.36-0.645,1.982-1.06c0.634-0.415,1.222-0.899,1.752-1.429s1.014-1.129,1.441-1.752
			c0.415-0.634,0.761-1.302,1.049-1.994c0.288-0.691,0.519-1.418,0.668-2.155c0.15-0.749,0.219-1.498,0.219-2.247
			C373.6,279.558,373.531,278.809,373.381,278.06z"/>
	</g>
</g>
<g>
	<g>
		<path d="M508.627,166.361c-4.5-4.5-11.798-4.5-16.299,0l-8.149,8.149l-32.596-32.596l8.421-8.421
			c13.329-13.331,13.329-35.021,0-48.352L426.862,52c-13.331-13.328-35.021-13.331-48.353,0l-8.42,8.42l-32.596-32.596l8.149-8.149
			c4.5-4.5,4.5-11.798,0-16.299c-4.5-4.5-11.798-4.5-16.299,0l-32.596,32.596c-4.5,4.5-4.5,11.798,0,16.299
			c2.251,2.251,5.2,3.376,8.149,3.376c2.949,0,5.899-1.125,8.149-3.376l8.149-8.149l32.596,32.596l-8.149,8.149
			c-4.492,4.493-11.806,4.492-16.298,0c-6.531-6.531-15.213-10.127-24.447-10.127c-9.235,0-17.917,3.597-24.447,10.127
			L84.87,280.449c-6.531,6.53-10.127,15.213-10.127,24.447c0,9.235,3.597,17.917,10.127,24.447c4.493,4.493,4.493,11.805,0,16.298
			l-8.149,8.149l-32.596-32.596l8.149-8.149c4.5-4.5,4.5-11.798,0-16.299c-4.5-4.5-11.798-4.5-16.299,0L3.378,329.344
			c-4.5,4.5-4.5,11.798,0,16.299c2.251,2.251,5.2,3.376,8.149,3.376c2.949,0,5.899-1.125,8.149-3.376l8.149-8.149l32.596,32.596
			L52,378.512c-13.329,13.331-13.329,35.021,0,48.352l33.14,33.14c6.666,6.666,15.419,9.998,24.177,9.998
			c8.754,0,17.512-3.334,24.176-9.998l8.42-8.42l32.596,32.596l-8.149,8.149c-4.5,4.5-4.5,11.798,0,16.299
			c2.251,2.251,5.2,3.376,8.149,3.376c2.949,0,5.9-1.125,8.149-3.376l32.596-32.596c4.5-4.5,4.5-11.798,0-16.299
			c-4.5-4.5-11.798-4.5-16.299,0l-8.149,8.149l-32.596-32.596l8.149-8.149c4.493-4.492,11.807-4.491,16.298,0
			c6.531,6.531,15.213,10.127,24.447,10.127c9.235,0,17.917-3.597,24.447-10.127l114.089-114.087c4.5-4.5,4.5-11.798,0-16.298
			c-4.5-4.502-11.798-4.502-16.299,0L215.254,410.838c-4.493,4.493-11.806,4.493-16.298,0c-6.531-6.53-15.213-10.127-24.448-10.127
			c-9.235,0-17.917,3.597-24.447,10.127l-8.148,8.148l-48.895-48.895l8.149-8.149c6.53-6.53,10.127-15.213,10.127-24.447
			c0-9.236-3.597-17.917-10.127-24.448c-4.494-4.493-4.494-11.805,0-16.298l195.581-195.581c4.493-4.493,11.806-4.493,16.298,0
			c6.531,6.53,15.213,10.127,24.448,10.127c9.235,0,17.917-3.597,24.447-10.127l8.148-8.148l48.895,48.895l-8.149,8.149
			c-6.53,6.53-10.127,15.213-10.127,24.447c0,9.236,3.597,17.917,10.127,24.448c4.493,4.493,4.493,11.805,0,16.298l-32.326,32.324
			c-4.5,4.5-4.5,11.798,0,16.299c4.5,4.499,11.798,4.499,16.299,0l32.324-32.326c6.531-6.53,10.127-15.213,10.127-24.447
			s-3.597-17.917-10.127-24.447c-4.493-4.494-4.493-11.805,0-16.298l8.149-8.149l32.596,32.596l-8.149,8.149
			c-4.5,4.5-4.5,11.798,0,16.299c2.251,2.251,5.2,3.376,8.149,3.376c2.949,0,5.899-1.125,8.149-3.376l32.596-32.596
			C513.127,178.16,513.127,170.862,508.627,166.361z M125.616,435.285l-8.42,8.42c-4.344,4.344-11.413,4.344-15.755,0l-33.14-33.14
			c-4.344-4.344-4.344-11.411,0-15.754l8.421-8.421L125.616,435.285z M443.705,117.194l-8.421,8.421l-48.895-48.896l8.42-8.42
			c4.344-4.344,11.412-4.345,15.755,0l33.14,33.14C448.048,105.784,448.048,112.851,443.705,117.194z"/>
	</g>
</g>
</svg>